# xmcd
#
# Track frame offsets:
#	150
#	12793
#	26712
#	37476
#	47580
#	60539
#	73647
#	88377
#	103341
#	115556
#	127952
#	138567
#	149029
#	159859
#	171467
#	184127
#	196252
#	207089
#
# Disc length: 2929 seconds
#
# Revision: 0
# Processed by: cddbd v1.5.2PL0 Copyright (c) Steve Scherf et al.
# Submitted via: dBpowerAMP V4.0
#
DISCID=0d0b6f12
DTITLE=Jimmy Reed - the BEST of the VEE-JAY years
DYEAR=2007
DGENRE=Blues
TTITLE0=High and Lonesome
TTITLE1=You Don't Have to Go
TTITLE2=I Ain't Got You
TTITLE3=Ain't That Loving You Baby
TTITLE4=Can't Stand To See You Go
TTITLE5=You've Got Me Dizzy
TTITLE6=Little Rain
TTITLE7=Honey, Where You Going?
TTITLE8=Honest I Do
TTITLE9=I'm Gonna Get My Baby
TTITLE10=Take Out Some Insurance
TTITLE11=Going To New York
TTITLE12=Baby What You Want Me To Do
TTITLE13=Hush-Hush
TTITLE14=Big Boss Man
TTITLE15=Bright Lights Big City
TTITLE16=Oh John
TTITLE17=Shame Shame Shame
EXTD=Jimmy Reed: the best of the Vee-Jay years (6/53 - 3/63)
EXTT0=
EXTT1=
EXTT2=
EXTT3=
EXTT4=
EXTT5=
EXTT6=
EXTT7=
EXTT8=
EXTT9=
EXTT10=
EXTT11=
EXTT12=
EXTT13=
EXTT14=
EXTT15=
EXTT16=
EXTT17=
PLAYORDER=
